<svg width="778.0280151367188" height="78.2239990234375" viewBox="0 0 778.028 78.224" xmlns="http://www.w3.org/2000/svg">
  <g id="svgGroup" stroke-linecap="round" fill-rule="evenodd" font-size="9pt" stroke="#000" stroke-width="0.25mm" fill="#000" style="stroke:#000;stroke-width:0.25mm;fill:#000">
    <path d="M 36.134 12.061 L 36.183 11.182 A 4.177 4.177 0 0 1 36.487 9.808 A 3.607 3.607 0 0 1 37.428 8.496 A 3.934 3.934 0 0 1 40.138 7.471 A 3.616 3.616 0 0 1 42.82 8.629 A 4.844 4.844 0 0 1 42.97 8.789 Q 43.995 9.913 43.995 11.475 A 279.301 279.301 0 0 1 43.938 12.481 Q 43.538 19.44 40.333 74.512 Q 40.187 76.27 39.039 77.246 A 4.048 4.048 0 0 1 36.329 78.223 A 3.601 3.601 0 0 1 34.15 77.481 A 5.144 5.144 0 0 1 33.497 76.905 A 3.672 3.672 0 0 1 32.481 74.517 A 4.838 4.838 0 0 1 32.472 74.219 A 12.938 12.938 0 0 1 32.485 73.758 Q 32.576 71.515 33.302 60.45 A 22.304 22.304 0 0 1 23.56 62.928 A 26.198 26.198 0 0 1 22.755 62.94 A 24.447 24.447 0 0 1 16.2 62.098 A 19.525 19.525 0 0 1 9.571 58.838 A 22.331 22.331 0 0 1 2.418 49.683 A 29.904 29.904 0 0 1 0.003 38.049 A 34.163 34.163 0 0 1 0.001 37.647 A 39.184 39.184 0 0 1 0.986 28.613 A 27.169 27.169 0 0 1 7.008 16.7 Q 14.015 8.741 25.294 8.741 A 20.955 20.955 0 0 1 30.347 9.321 A 15.596 15.596 0 0 1 36.134 12.061 Z M 33.888 50.293 L 35.402 24.512 A 13.417 13.417 0 0 0 33.787 20.777 Q 31.398 17.081 26.687 16.619 A 14.275 14.275 0 0 0 25.294 16.553 A 19.218 19.218 0 0 0 21.683 16.878 A 14.809 14.809 0 0 0 18.458 17.871 Q 15.48 19.19 13.38 21.534 A 19.586 19.586 0 0 0 9.859 27.149 A 23.458 23.458 0 0 0 9.23 28.833 A 27.834 27.834 0 0 0 7.814 37.647 A 23.036 23.036 0 0 0 9.079 45.314 A 21.939 21.939 0 0 0 9.303 45.923 A 14.886 14.886 0 0 0 12.336 50.837 A 14.205 14.205 0 0 0 13.868 52.246 A 12.247 12.247 0 0 0 19.535 54.846 A 17.106 17.106 0 0 0 22.706 55.127 A 15.15 15.15 0 0 0 29.344 53.692 A 15.113 15.113 0 0 0 33.888 50.293 Z" vector-effect="non-scaling-stroke" class="svg-elem-1"></path>
    <path d="M 88.38 64.307 L 88.087 58.106 A 27.576 27.576 0 0 1 80.079 64.038 A 22.049 22.049 0 0 1 70.167 66.309 Q 61.183 66.309 56.544 58.448 A 24.447 24.447 0 0 1 54.217 52.303 Q 53.534 49.463 53.321 46.139 A 48.744 48.744 0 0 1 53.224 43.018 A 63.825 63.825 0 0 1 53.484 37.423 Q 53.752 34.378 54.298 31.006 A 157.165 157.165 0 0 1 55.188 26.009 Q 56.978 16.89 58.796 15.151 A 1.795 1.795 0 0 1 59.132 14.893 Q 60.011 14.356 61.036 14.356 A 4.12 4.12 0 0 1 62.585 14.634 Q 63.586 15.037 64.247 16.02 A 4.93 4.93 0 0 1 64.454 16.358 Q 64.991 17.237 64.991 18.262 A 3.641 3.641 0 0 1 64.928 18.924 A 4.465 4.465 0 0 1 64.845 19.288 A 156.906 156.906 0 0 0 62.862 27.82 Q 61.085 36.655 61.085 43.067 A 39.186 39.186 0 0 0 61.404 48.31 Q 62.788 58.496 70.167 58.496 A 15.503 15.503 0 0 0 80.366 54.678 A 20.954 20.954 0 0 0 81.739 53.418 Q 86.654 48.412 87.248 42.844 A 14.437 14.437 0 0 0 87.306 42.139 A 11498.063 11498.063 0 0 1 87.1 37.959 Q 86.525 26.248 86.441 23.949 A 18.292 18.292 0 0 1 86.427 23.438 A 4.006 4.006 0 0 1 87.501 20.679 A 3.529 3.529 0 0 1 90.073 19.487 A 4.718 4.718 0 0 1 90.284 19.483 A 3.934 3.934 0 0 1 92.994 20.508 A 3.69 3.69 0 0 1 94.218 22.938 A 4.899 4.899 0 0 1 94.239 23.194 Q 95.943 57.23 96.161 62.985 A 38.415 38.415 0 0 1 96.193 64.063 A 4.114 4.114 0 0 1 95.167 66.822 A 3.361 3.361 0 0 1 92.721 68.009 A 4.643 4.643 0 0 1 92.433 68.018 Q 88.575 68.018 88.38 64.307 Z" vector-effect="non-scaling-stroke" class="svg-elem-2"></path>
    <path d="M 125.734 68.848 L 125.441 68.848 A 22.381 22.381 0 0 1 118.364 67.779 A 18.332 18.332 0 0 1 110.206 62.305 A 22.592 22.592 0 0 1 104.444 46.875 A 20.816 20.816 0 0 1 110.206 32.129 A 20.07 20.07 0 0 1 117.853 26.889 A 20.277 20.277 0 0 1 125.05 25.635 Q 131.544 25.635 138.087 28.565 A 31.858 31.858 0 0 0 137.427 24.424 Q 136.931 22.291 136.15 20.521 A 17.321 17.321 0 0 0 135.548 19.288 A 10.854 10.854 0 0 0 127.757 13.57 A 16.339 16.339 0 0 0 124.611 13.282 A 11.972 11.972 0 0 0 116.197 16.717 A 17.877 17.877 0 0 0 114.308 18.799 A 4.225 4.225 0 0 1 113.165 19.807 A 3.743 3.743 0 0 1 111.232 20.313 Q 109.962 20.313 108.888 19.434 A 4.025 4.025 0 0 1 107.848 18.315 Q 107.342 17.485 107.326 16.426 A 4.594 4.594 0 0 1 107.325 16.358 A 3.716 3.716 0 0 1 108.055 14.149 A 4.636 4.636 0 0 1 108.155 14.014 A 23.733 23.733 0 0 1 113.689 8.724 A 19.245 19.245 0 0 1 124.659 5.469 A 23.649 23.649 0 0 1 131.954 6.529 A 17.865 17.865 0 0 1 142.384 15.43 A 28.133 28.133 0 0 1 145.048 22.576 Q 146.095 27.069 146.095 32.569 A 19.682 19.682 0 0 1 146.055 33.506 Q 145.818 37.624 144.157 57.426 A 8922.1 8922.1 0 0 1 143.556 64.551 A 3.691 3.691 0 0 1 142.786 66.447 A 5.275 5.275 0 0 1 142.091 67.188 Q 141.066 68.067 139.65 68.067 A 4.256 4.256 0 0 1 138.134 67.807 A 3.758 3.758 0 0 1 136.476 66.553 A 33.232 33.232 0 0 1 125.734 68.848 Z M 136.232 58.106 L 138.087 37.305 A 23.467 23.467 0 0 0 130.682 34.007 A 21.435 21.435 0 0 0 125.587 33.399 A 15.662 15.662 0 0 0 121.389 33.932 A 11.462 11.462 0 0 0 115.821 37.354 A 13.762 13.762 0 0 0 112.336 45.506 A 18.245 18.245 0 0 0 112.257 47.217 A 16.124 16.124 0 0 0 112.976 52.131 A 13.373 13.373 0 0 0 115.821 57.08 A 11.726 11.726 0 0 0 122.913 60.833 A 16.932 16.932 0 0 0 125.587 61.036 A 20.957 20.957 0 0 0 135.428 58.546 A 24.93 24.93 0 0 0 136.232 58.106 Z" vector-effect="non-scaling-stroke" class="svg-elem-3"></path>
    <path d="M 163.185 18.116 L 163.478 23.438 A 31.449 31.449 0 0 1 166.691 19.183 Q 171.446 13.965 176.954 13.965 A 10.641 10.641 0 0 1 180.463 14.513 Q 183.335 15.511 185.041 18.323 A 11.411 11.411 0 0 1 185.206 18.604 A 13.848 13.848 0 0 1 186.885 23.402 A 18.225 18.225 0 0 1 187.111 26.319 A 28.643 28.643 0 0 1 186.036 34.034 A 4.116 4.116 0 0 1 185.407 35.381 A 3.699 3.699 0 0 1 184.23 36.426 Q 183.302 36.963 182.277 36.963 A 4.076 4.076 0 0 1 180.657 36.653 Q 179.564 36.185 178.859 35.01 Q 178.321 34.082 178.321 33.057 A 3.641 3.641 0 0 1 178.385 32.395 A 4.465 4.465 0 0 1 178.468 32.032 Q 179.103 29.639 179.252 27.704 A 14.883 14.883 0 0 0 179.298 26.563 A 14.694 14.694 0 0 0 179.237 25.169 Q 179.104 23.782 178.684 22.915 A 3.469 3.469 0 0 0 178.517 22.608 A 2.021 2.021 0 0 0 178.178 22.17 A 1.366 1.366 0 0 0 177.198 21.778 A 3.999 3.999 0 0 0 175.394 22.259 Q 173.304 23.319 170.753 26.709 A 26.004 26.004 0 0 0 168.345 30.525 Q 166.221 34.569 164.471 40.526 A 86.984 86.984 0 0 0 164.357 40.918 A 21228.55 21228.55 0 0 1 164.666 46.573 Q 165.528 62.394 165.653 65.231 A 20.32 20.32 0 0 1 165.675 65.821 A 4.114 4.114 0 0 1 164.65 68.579 A 3.361 3.361 0 0 1 162.204 69.767 A 4.643 4.643 0 0 1 161.915 69.776 Q 160.255 69.776 159.108 68.75 A 3.69 3.69 0 0 1 157.884 66.32 A 4.899 4.899 0 0 1 157.862 66.065 Q 157.179 54.053 155.616 22.803 A 340.592 340.592 0 0 1 155.533 21.561 Q 155.385 19.271 155.373 18.484 A 8.366 8.366 0 0 1 155.372 18.36 A 4.006 4.006 0 0 1 156.446 15.601 A 3.529 3.529 0 0 1 159.018 14.409 A 4.718 4.718 0 0 1 159.23 14.405 A 3.934 3.934 0 0 1 161.94 15.43 A 3.69 3.69 0 0 1 163.163 17.86 A 4.899 4.899 0 0 1 163.185 18.116 Z " vector-effect="non-scaling-stroke" class="svg-elem-4"></path>
    <path d="M 202.003 42.041 L 202.003 30.079 L 196.876 29.2 A 4.232 4.232 0 0 1 195.573 28.756 A 3.569 3.569 0 0 1 194.337 27.637 A 3.781 3.781 0 0 1 193.605 25.391 Q 193.605 23.34 195.216 22.168 Q 196.241 21.436 197.56 21.436 A 1.618 1.618 0 0 1 197.715 21.447 Q 198.409 21.522 201.559 22.088 A 451.518 451.518 0 0 1 202.003 22.168 L 202.003 5.909 A 3.802 3.802 0 0 1 203.122 3.154 A 4.609 4.609 0 0 1 203.126 3.15 A 3.727 3.727 0 0 1 205.832 2.003 A 4.749 4.749 0 0 1 205.909 2.002 A 3.756 3.756 0 0 1 208.632 3.114 A 4.593 4.593 0 0 1 208.668 3.15 A 3.758 3.758 0 0 1 209.815 5.858 A 4.491 4.491 0 0 1 209.816 5.909 L 209.816 23.487 L 220.851 25.391 A 3.883 3.883 0 0 1 223.39 26.954 Q 224.122 27.979 224.122 29.297 A 3.623 3.623 0 0 1 222.896 32.065 A 5.048 5.048 0 0 1 222.462 32.422 A 3.794 3.794 0 0 1 220.337 33.104 A 4.639 4.639 0 0 1 220.216 33.106 A 2.698 2.698 0 0 1 219.968 33.079 Q 218.777 32.919 212.213 31.805 A 2591.299 2591.299 0 0 1 209.816 31.397 L 209.816 41.944 A 98.762 98.762 0 0 0 209.987 47.945 Q 210.176 51.039 210.573 53.677 A 40.896 40.896 0 0 0 211.573 58.496 A 19.51 19.51 0 0 0 212.525 61.231 Q 213.914 64.367 216.069 65.265 A 4.767 4.767 0 0 0 217.921 65.625 A 4.369 4.369 0 0 0 221.34 63.987 Q 221.935 63.299 222.427 62.324 A 12.297 12.297 0 0 0 222.853 61.377 A 4.093 4.093 0 0 1 223.598 60.162 A 3.592 3.592 0 0 1 224.952 59.229 A 4.245 4.245 0 0 1 225.745 58.967 A 3.364 3.364 0 0 1 226.466 58.887 A 3.329 3.329 0 0 1 227.633 59.104 A 4.003 4.003 0 0 1 227.931 59.229 A 4.893 4.893 0 0 1 229.165 59.987 Q 230.353 61.012 230.372 62.691 A 4.836 4.836 0 0 1 230.372 62.745 A 4.385 4.385 0 0 1 230.123 64.185 A 5.004 5.004 0 0 1 230.079 64.307 A 17.039 17.039 0 0 1 227.779 68.401 A 14.537 14.537 0 0 1 225.27 70.948 Q 222.12 73.438 217.921 73.438 A 12.416 12.416 0 0 1 211.94 72.02 Q 208.812 70.336 206.691 66.651 A 28.492 28.492 0 0 1 204.07 60.235 Q 202.294 53.99 202.044 45.042 A 107.575 107.575 0 0 1 202.003 42.041 Z" vector-effect="non-scaling-stroke" class="svg-elem-5"></path>
    <path d="M 244.516 59.918 A 24.088 24.088 0 0 0 252.931 61.329 A 28.13 28.13 0 0 0 254.554 61.282 A 21.092 21.092 0 0 0 269.972 53.76 A 26.006 26.006 0 0 0 274.952 44.922 A 32.066 32.066 0 0 0 276.612 34.717 A 30.991 30.991 0 0 0 275.026 24.805 Q 273.439 20.069 270.411 16.382 A 21.951 21.951 0 0 0 262.989 10.547 A 20.369 20.369 0 0 0 258.277 8.936 A 25.558 25.558 0 0 0 252.931 8.399 A 28.634 28.634 0 0 0 251.467 8.436 A 21.374 21.374 0 0 0 235.841 15.87 A 24.788 24.788 0 0 0 235.444 16.338 A 25.846 25.846 0 0 0 230.934 24.488 A 31.584 31.584 0 0 0 229.249 34.815 A 35.545 35.545 0 0 0 229.329 37.214 A 28.08 28.08 0 0 0 235.06 52.784 A 20.932 20.932 0 0 0 244.516 59.918 Z M 252.931 53.467 Q 259.962 53.467 264.015 48.584 A 20.348 20.348 0 0 0 268.629 36.84 A 26.242 26.242 0 0 0 268.702 34.864 A 23.463 23.463 0 0 0 267.74 28.005 A 19.236 19.236 0 0 0 264.015 21.143 A 13.574 13.574 0 0 0 254.102 16.296 A 18.72 18.72 0 0 0 252.931 16.26 A 16.456 16.456 0 0 0 247.896 16.994 A 13.098 13.098 0 0 0 241.798 21.094 A 20.097 20.097 0 0 0 237.167 32.955 A 25.79 25.79 0 0 0 237.111 34.668 A 24.074 24.074 0 0 0 238.073 41.615 A 19.699 19.699 0 0 0 241.798 48.584 A 13.239 13.239 0 0 0 250.999 53.371 A 18.814 18.814 0 0 0 252.931 53.467 Z" vector-effect="non-scaling-stroke" class="svg-elem-6"></path>
    <path d="M 318.214 19.629 L 320.802 55.176 A 394.307 394.307 0 0 1 320.918 56.759 Q 321.126 59.677 321.142 60.682 A 9.748 9.748 0 0 1 321.144 60.84 A 4.167 4.167 0 0 1 320.271 63.392 A 5.227 5.227 0 0 1 320.167 63.526 A 3.126 3.126 0 0 1 318.414 64.615 Q 317.887 64.744 317.257 64.746 A 6.243 6.243 0 0 1 317.237 64.746 A 3.919 3.919 0 0 1 314.625 63.77 Q 313.478 62.793 313.38 61.133 Q 310.789 25.882 310.452 20.738 A 28.657 28.657 0 0 1 310.402 19.873 A 4.012 4.012 0 0 1 311.378 17.237 A 3.764 3.764 0 0 1 312.63 16.287 A 3.632 3.632 0 0 1 314.161 15.967 A 4.174 4.174 0 0 1 316.92 16.968 A 3.559 3.559 0 0 1 318.202 19.475 A 4.752 4.752 0 0 1 318.214 19.629 Z M 310.792 10.181 A 4.146 4.146 0 0 0 313.575 11.182 Q 315.333 11.182 316.31 9.961 A 5.227 5.227 0 0 0 316.414 9.827 A 4.167 4.167 0 0 0 317.286 7.276 A 31.597 31.597 0 0 0 317.091 3.736 A 5.245 5.245 0 0 0 316.98 3.099 A 3.864 3.864 0 0 0 315.724 1.001 Q 314.552 0 312.989 0 A 3.444 3.444 0 0 0 311.231 0.465 A 4.186 4.186 0 0 0 310.206 1.319 Q 309.23 2.442 309.23 3.907 A 15.954 15.954 0 0 0 309.23 4.02 Q 309.239 5.22 309.425 7.154 A 7.256 7.256 0 0 0 309.471 7.532 Q 309.57 8.191 309.783 8.731 A 3.61 3.61 0 0 0 310.792 10.181 Z" vector-effect="non-scaling-stroke" class="svg-elem-7"></path>
    <path d="M 342.721 64.797 A 82.727 82.727 0 0 0 348.927 65.039 Q 358.878 65.039 364.4 62.333 A 11.302 11.302 0 0 0 370.997 54.297 A 19.483 19.483 0 0 0 371.278 52.622 A 14.553 14.553 0 0 0 371.388 50.879 A 9.72 9.72 0 0 0 370.199 46.08 Q 369.082 44.068 366.917 42.512 A 18.713 18.713 0 0 0 363.185 40.479 A 75.771 75.771 0 0 0 359.469 39.067 A 93.729 93.729 0 0 0 353.517 37.207 A 95.94 95.94 0 0 1 352.862 37.027 Q 345.936 35.091 342.63 33.01 A 9.574 9.574 0 0 1 340.675 31.446 A 8.148 8.148 0 0 1 340.205 30.857 A 6.199 6.199 0 0 1 338.966 27.149 A 8.303 8.303 0 0 1 339.161 25.342 A 14.559 14.559 0 0 1 339.184 25.251 Q 339.541 23.847 340.124 22.732 A 7.563 7.563 0 0 1 343.165 19.532 A 10.984 10.984 0 0 1 348.536 18.164 Q 353.761 18.164 357.569 21.631 A 9.728 9.728 0 0 1 359.73 24.538 A 11.354 11.354 0 0 1 360.743 27.979 A 4.828 4.828 0 0 0 360.863 28.628 A 3.469 3.469 0 0 0 362.086 30.542 A 4.937 4.937 0 0 0 362.212 30.638 A 3.943 3.943 0 0 0 364.601 31.446 Q 366.505 31.446 367.628 30.127 A 5.104 5.104 0 0 0 367.741 29.971 A 4.105 4.105 0 0 0 368.507 27.588 Q 368.507 25.538 367.603 23.108 A 23.019 23.019 0 0 0 366.407 20.459 A 15.166 15.166 0 0 0 363.429 16.553 A 26.767 26.767 0 0 0 363.379 16.504 A 20.696 20.696 0 0 0 348.487 10.303 Q 343.556 10.303 339.112 12.793 A 14.627 14.627 0 0 0 333.386 18.77 A 21.26 21.26 0 0 0 331.544 23.682 A 17.159 17.159 0 0 0 331.217 25.341 A 20.416 20.416 0 0 0 331.007 28.321 A 13.986 13.986 0 0 0 331.297 31.245 A 9.863 9.863 0 0 0 332.765 34.766 A 15.801 15.801 0 0 0 336.17 38.452 A 19.442 19.442 0 0 0 340.528 41.016 A 73.098 73.098 0 0 0 342.457 41.818 A 81.701 81.701 0 0 0 351.368 44.776 Q 356.544 46.143 359.791 47.779 A 10.067 10.067 0 0 1 360.65 48.263 Q 361.406 48.742 361.923 49.288 A 3.776 3.776 0 0 1 363.038 51.954 Q 363.038 56.321 353.26 57.071 A 58.882 58.882 0 0 1 348.78 57.227 A 74.532 74.532 0 0 1 348.527 57.227 A 68.38 68.38 0 0 1 340.919 56.788 A 196.792 196.792 0 0 1 339.18 56.579 Q 336.535 56.25 335.175 55.991 A 12.741 12.741 0 0 1 334.352 55.811 A 20.713 20.713 0 0 0 334.02 55.727 Q 333.187 55.523 332.583 55.455 A 4.946 4.946 0 0 0 332.032 55.42 A 4.491 4.491 0 0 0 331.982 55.421 A 3.758 3.758 0 0 0 329.274 56.568 A 3.908 3.908 0 0 0 328.489 57.67 A 3.956 3.956 0 0 0 328.126 59.375 A 5.155 5.155 0 0 0 328.16 59.974 Q 328.38 61.854 330.035 62.731 A 5.91 5.91 0 0 0 331.52 63.257 Q 334.913 64.014 339.747 64.527 A 97.871 97.871 0 0 0 342.721 64.797 Z" vector-effect="non-scaling-stroke" class="svg-elem-8"></path>
    <path d="M 422.95 68.848 L 422.657 68.848 A 22.381 22.381 0 0 1 415.581 67.779 A 18.332 18.332 0 0 1 407.423 62.305 A 22.592 22.592 0 0 1 401.661 46.875 A 20.816 20.816 0 0 1 407.423 32.129 A 20.07 20.07 0 0 1 415.07 26.889 A 20.277 20.277 0 0 1 422.267 25.635 Q 428.761 25.635 435.304 28.565 A 31.858 31.858 0 0 0 434.643 24.424 Q 434.148 22.291 433.367 20.521 A 17.321 17.321 0 0 0 432.765 19.288 A 10.854 10.854 0 0 0 424.974 13.57 A 16.339 16.339 0 0 0 421.827 13.282 A 11.972 11.972 0 0 0 413.413 16.717 A 17.877 17.877 0 0 0 411.525 18.799 A 4.225 4.225 0 0 1 410.382 19.807 A 3.743 3.743 0 0 1 408.448 20.313 Q 407.179 20.313 406.105 19.434 A 4.025 4.025 0 0 1 405.064 18.315 Q 404.558 17.485 404.543 16.426 A 4.594 4.594 0 0 1 404.542 16.358 A 3.716 3.716 0 0 1 405.272 14.149 A 4.636 4.636 0 0 1 405.372 14.014 A 23.733 23.733 0 0 1 410.906 8.724 A 19.245 19.245 0 0 1 421.876 5.469 A 23.649 23.649 0 0 1 429.171 6.529 A 17.865 17.865 0 0 1 439.601 15.43 A 28.133 28.133 0 0 1 442.264 22.576 Q 443.312 27.069 443.312 32.569 A 19.682 19.682 0 0 1 443.272 33.506 Q 443.034 37.624 441.373 57.426 A 8922.1 8922.1 0 0 1 440.773 64.551 A 3.691 3.691 0 0 1 440.002 66.447 A 5.275 5.275 0 0 1 439.308 67.188 Q 438.282 68.067 436.866 68.067 A 4.256 4.256 0 0 1 435.351 67.807 A 3.758 3.758 0 0 1 433.693 66.553 A 33.232 33.232 0 0 1 422.95 68.848 Z M 433.448 58.106 L 435.304 37.305 A 23.467 23.467 0 0 0 427.899 34.007 A 21.435 21.435 0 0 0 422.804 33.399 A 15.662 15.662 0 0 0 418.605 33.932 A 11.462 11.462 0 0 0 413.038 37.354 A 13.762 13.762 0 0 0 409.552 45.506 A 18.245 18.245 0 0 0 409.474 47.217 A 16.124 16.124 0 0 0 410.193 52.131 A 13.373 13.373 0 0 0 413.038 57.08 A 11.726 11.726 0 0 0 420.129 60.833 A 16.932 16.932 0 0 0 422.804 61.036 A 20.957 20.957 0 0 0 432.645 58.546 A 24.93 24.93 0 0 0 433.448 58.106 Z" vector-effect="non-scaling-stroke" class="svg-elem-9"></path>
    <path d="M 498.585 60.205 L 480.03 27.002 L 465.773 59.717 Q 464.698 62.207 462.062 62.207 A 3.734 3.734 0 0 1 460.345 61.779 A 4.969 4.969 0 0 1 459.694 61.377 A 3.47 3.47 0 0 1 458.437 59.648 A 4.823 4.823 0 0 1 458.253 58.936 A 67625.446 67625.446 0 0 1 456.262 47.039 Q 449.757 8.155 449.757 7.813 A 4.003 4.003 0 0 1 450.161 6.083 A 5.24 5.24 0 0 1 450.538 5.42 A 3.489 3.489 0 0 1 452.957 4.008 A 5.267 5.267 0 0 1 453.712 3.955 A 3.836 3.836 0 0 1 455.465 4.39 A 5.028 5.028 0 0 1 456.08 4.761 A 3.312 3.312 0 0 1 457.27 6.314 A 4.82 4.82 0 0 1 457.521 7.227 L 463.819 44.629 L 476.075 16.602 A 3.772 3.772 0 0 1 477.211 15.1 A 3.903 3.903 0 0 1 478.175 14.551 A 3.56 3.56 0 0 1 479.591 14.258 A 4.085 4.085 0 0 1 481.17 14.55 Q 482.354 15.041 483.058 16.358 L 500.245 47.168 L 507.423 11.914 A 4.041 4.041 0 0 1 508.055 10.419 A 3.832 3.832 0 0 1 509.083 9.424 A 3.782 3.782 0 0 1 511.183 8.789 A 4.176 4.176 0 0 1 512.74 9.069 Q 513.798 9.49 514.503 10.547 Q 515.187 11.524 515.187 12.696 A 14.608 14.608 0 0 1 515.04 13.517 Q 514.167 18.081 508.094 47.891 A 40941.024 40941.024 0 0 1 505.812 59.082 A 3.826 3.826 0 0 1 504.287 61.431 A 5.279 5.279 0 0 1 503.859 61.719 A 3.543 3.543 0 0 1 502.413 62.184 A 4.402 4.402 0 0 1 501.954 62.207 Q 499.945 62.207 498.834 60.605 A 4.966 4.966 0 0 1 498.585 60.205 Z" vector-effect="non-scaling-stroke" class="svg-elem-10"></path>
    <path d="M 541.993 69.58 Q 536.866 69.58 532.862 67.31 Q 528.859 65.039 526.027 61.109 A 27.798 27.798 0 0 1 522.649 54.79 A 33.584 33.584 0 0 1 521.705 51.954 Q 520.216 46.729 520.216 41.065 A 43.551 43.551 0 0 1 521.08 32.148 Q 522.296 26.331 525.226 21.813 A 26.933 26.933 0 0 1 525.88 20.85 A 19.971 19.971 0 0 1 531.682 15.315 Q 535.751 12.824 540.997 12.659 A 23.867 23.867 0 0 1 541.749 12.647 A 20.443 20.443 0 0 1 547.297 13.364 A 15.673 15.673 0 0 1 553.81 16.993 Q 558.79 21.582 558.79 28.614 Q 558.79 32.813 557.154 36.914 A 18.004 18.004 0 0 1 552.566 43.506 A 21.31 21.31 0 0 1 551.905 44.092 Q 545.411 49.707 535.255 49.707 A 36.907 36.907 0 0 1 529.462 49.237 A 40.74 40.74 0 0 1 529.054 49.17 Q 529.884 52.393 531.569 55.249 Q 533.253 58.106 535.841 59.913 Q 538.429 61.719 541.993 61.719 A 10.387 10.387 0 0 0 550.14 57.971 A 15.269 15.269 0 0 0 551.466 56.202 Q 552.59 54.469 554.568 54.398 A 4.752 4.752 0 0 1 554.737 54.395 A 3.448 3.448 0 0 1 556.248 54.752 A 4.423 4.423 0 0 1 556.739 55.03 Q 558.595 56.202 558.595 58.301 A 3.781 3.781 0 0 1 558.209 59.946 A 4.765 4.765 0 0 1 557.96 60.401 A 20.896 20.896 0 0 1 552.694 66.127 A 19.936 19.936 0 0 1 551.222 67.115 A 17.021 17.021 0 0 1 543.427 69.532 A 20.79 20.79 0 0 1 541.993 69.58 Z M 535.109 41.846 A 25.589 25.589 0 0 0 539.681 41.464 Q 542.215 41.003 544.215 39.987 A 12.572 12.572 0 0 0 546.852 38.208 Q 550.978 34.571 550.978 28.614 A 8.093 8.093 0 0 0 548.555 22.774 A 10.267 10.267 0 0 0 548.536 22.754 A 7.272 7.272 0 0 0 545.639 21.052 Q 544.498 20.682 543.111 20.564 A 16.011 16.011 0 0 0 541.749 20.508 A 11.747 11.747 0 0 0 536.966 21.453 Q 534.445 22.563 532.602 24.976 A 14.332 14.332 0 0 0 532.228 25.489 Q 528.077 31.495 528.077 40.967 A 28.894 28.894 0 0 0 535.109 41.846 Z" vector-effect="non-scaling-stroke" class="svg-elem-11"></path>
    <path d="M 579.098 64.797 A 82.727 82.727 0 0 0 585.304 65.039 Q 595.255 65.039 600.777 62.333 A 11.302 11.302 0 0 0 607.374 54.297 A 19.483 19.483 0 0 0 607.655 52.622 A 14.553 14.553 0 0 0 607.765 50.879 A 9.72 9.72 0 0 0 606.576 46.08 Q 605.459 44.068 603.294 42.512 A 18.713 18.713 0 0 0 599.562 40.479 A 75.771 75.771 0 0 0 595.846 39.067 A 93.729 93.729 0 0 0 589.894 37.207 A 95.94 95.94 0 0 1 589.239 37.027 Q 582.313 35.091 579.007 33.01 A 9.574 9.574 0 0 1 577.052 31.446 A 8.148 8.148 0 0 1 576.582 30.857 A 6.199 6.199 0 0 1 575.343 27.149 A 8.303 8.303 0 0 1 575.538 25.342 A 14.559 14.559 0 0 1 575.561 25.251 Q 575.918 23.847 576.501 22.732 A 7.563 7.563 0 0 1 579.542 19.532 A 10.984 10.984 0 0 1 584.913 18.164 Q 590.138 18.164 593.946 21.631 A 9.728 9.728 0 0 1 596.107 24.538 A 11.354 11.354 0 0 1 597.12 27.979 A 4.828 4.828 0 0 0 597.24 28.628 A 3.469 3.469 0 0 0 598.463 30.542 A 4.937 4.937 0 0 0 598.589 30.638 A 3.943 3.943 0 0 0 600.978 31.446 Q 602.882 31.446 604.005 30.127 A 5.104 5.104 0 0 0 604.118 29.971 A 4.105 4.105 0 0 0 604.884 27.588 Q 604.884 25.538 603.98 23.108 A 23.019 23.019 0 0 0 602.784 20.459 A 15.166 15.166 0 0 0 599.806 16.553 A 26.767 26.767 0 0 0 599.756 16.504 A 20.696 20.696 0 0 0 584.864 10.303 Q 579.933 10.303 575.489 12.793 A 14.627 14.627 0 0 0 569.763 18.77 A 21.26 21.26 0 0 0 567.921 23.682 A 17.159 17.159 0 0 0 567.594 25.341 A 20.416 20.416 0 0 0 567.384 28.321 A 13.986 13.986 0 0 0 567.674 31.245 A 9.863 9.863 0 0 0 569.142 34.766 A 15.801 15.801 0 0 0 572.547 38.452 A 19.442 19.442 0 0 0 576.905 41.016 A 73.098 73.098 0 0 0 578.834 41.818 A 81.701 81.701 0 0 0 587.745 44.776 Q 592.921 46.143 596.168 47.779 A 10.067 10.067 0 0 1 597.027 48.263 Q 597.783 48.742 598.3 49.288 A 3.776 3.776 0 0 1 599.415 51.954 Q 599.415 56.321 589.637 57.071 A 58.882 58.882 0 0 1 585.157 57.227 A 74.532 74.532 0 0 1 584.904 57.227 A 68.38 68.38 0 0 1 577.296 56.788 A 196.792 196.792 0 0 1 575.557 56.579 Q 572.912 56.25 571.552 55.991 A 12.741 12.741 0 0 1 570.729 55.811 A 20.713 20.713 0 0 0 570.397 55.727 Q 569.564 55.523 568.96 55.455 A 4.946 4.946 0 0 0 568.409 55.42 A 4.491 4.491 0 0 0 568.359 55.421 A 3.758 3.758 0 0 0 565.651 56.568 A 3.908 3.908 0 0 0 564.866 57.67 A 3.956 3.956 0 0 0 564.503 59.375 A 5.155 5.155 0 0 0 564.537 59.974 Q 564.757 61.854 566.412 62.731 A 5.91 5.91 0 0 0 567.897 63.257 Q 571.29 64.014 576.124 64.527 A 97.871 97.871 0 0 0 579.098 64.797 Z" vector-effect="non-scaling-stroke" class="svg-elem-12"></path>
    <path d="M 628.598 59.918 A 24.088 24.088 0 0 0 637.013 61.329 A 28.13 28.13 0 0 0 638.636 61.282 A 21.092 21.092 0 0 0 654.054 53.76 A 26.006 26.006 0 0 0 659.034 44.922 A 32.066 32.066 0 0 0 660.694 34.717 A 30.991 30.991 0 0 0 659.108 24.805 Q 657.521 20.069 654.493 16.382 A 21.951 21.951 0 0 0 647.071 10.547 A 20.369 20.369 0 0 0 642.36 8.936 A 25.558 25.558 0 0 0 637.013 8.399 A 28.634 28.634 0 0 0 635.549 8.436 A 21.374 21.374 0 0 0 619.923 15.87 A 24.788 24.788 0 0 0 619.526 16.338 A 25.846 25.846 0 0 0 615.016 24.488 A 31.584 31.584 0 0 0 613.331 34.815 A 35.545 35.545 0 0 0 613.411 37.214 A 28.08 28.08 0 0 0 619.142 52.784 A 20.932 20.932 0 0 0 628.598 59.918 Z M 637.013 53.467 Q 644.044 53.467 648.097 48.584 A 20.348 20.348 0 0 0 652.711 36.84 A 26.242 26.242 0 0 0 652.784 34.864 A 23.463 23.463 0 0 0 651.822 28.005 A 19.236 19.236 0 0 0 648.097 21.143 A 13.574 13.574 0 0 0 638.184 16.296 A 18.72 18.72 0 0 0 637.013 16.26 A 16.456 16.456 0 0 0 631.978 16.994 A 13.098 13.098 0 0 0 625.88 21.094 A 20.097 20.097 0 0 0 621.249 32.955 A 25.79 25.79 0 0 0 621.193 34.668 A 24.074 24.074 0 0 0 622.155 41.615 A 19.699 19.699 0 0 0 625.88 48.584 A 13.239 13.239 0 0 0 635.081 53.371 A 18.814 18.814 0 0 0 637.013 53.467 Z " vector-effect="non-scaling-stroke" class="svg-elem-13"></path>
    <path d="M 672.218 60.205 Q 669.142 12.647 670.118 11.524 A 4.186 4.186 0 0 1 671.143 10.67 A 3.444 3.444 0 0 1 672.902 10.205 Q 674.464 10.205 675.636 11.206 A 3.649 3.649 0 0 1 676.926 13.769 A 4.74 4.74 0 0 1 676.93 13.819 Q 677.052 15.43 677.15 16.993 A 18.753 18.753 0 0 1 682.495 13.078 A 16.606 16.606 0 0 1 689.747 11.475 A 14.221 14.221 0 0 1 695.034 12.412 Q 698.576 13.818 700.843 17.333 A 17.073 17.073 0 0 1 701.661 18.75 A 20.823 20.823 0 0 1 706.605 14.185 A 16.977 16.977 0 0 1 716.017 11.475 Q 719.874 11.475 723.121 13.282 A 12.95 12.95 0 0 1 727.044 16.689 A 16.866 16.866 0 0 1 728.468 18.848 A 23.781 23.781 0 0 1 730.606 24.735 Q 731.236 27.501 731.394 30.717 A 44.824 44.824 0 0 1 731.446 32.911 A 64.652 64.652 0 0 1 731.19 38.514 A 87.836 87.836 0 0 1 730.421 44.678 Q 728.194 58.133 725.923 60.038 A 1.634 1.634 0 0 1 725.685 60.205 Q 724.806 60.743 723.78 60.743 A 4.227 4.227 0 0 1 722.257 60.481 Q 721.204 60.077 720.524 59.051 A 4.854 4.854 0 0 1 720.362 58.789 Q 719.825 57.862 719.825 56.836 A 3.641 3.641 0 0 1 719.888 56.174 A 4.465 4.465 0 0 1 719.972 55.811 Q 723.368 42.59 723.615 34.281 A 42.867 42.867 0 0 0 723.634 33.008 A 36.917 36.917 0 0 0 723.366 28.345 Q 722.739 23.449 720.642 21.199 A 6.034 6.034 0 0 0 716.017 19.288 A 9.79 9.79 0 0 0 710.301 21.15 A 13.415 13.415 0 0 0 708.839 22.339 A 11.765 11.765 0 0 0 706.198 26.083 Q 705.467 27.672 705.028 29.634 A 24.473 24.473 0 0 0 704.689 31.495 A 53.984 53.984 0 0 1 704.807 33.855 A 68.055 68.055 0 0 1 704.835 35.84 Q 704.835 44.483 702.833 57.422 A 3.741 3.741 0 0 1 702.192 59.057 A 3.801 3.801 0 0 1 701.271 59.961 A 3.764 3.764 0 0 1 698.927 60.743 A 3.795 3.795 0 0 1 697.218 60.365 Q 696.482 60 695.917 59.283 A 4.877 4.877 0 0 1 695.802 59.131 A 3.781 3.781 0 0 1 695.069 56.885 A 4.378 4.378 0 0 1 695.101 56.482 Q 695.219 55.404 695.775 51.892 A 602.831 602.831 0 0 1 696.046 50.196 Q 697.023 44.141 697.023 36.377 A 60.584 60.584 0 0 0 696.788 30.787 Q 695.916 21.437 691.807 19.689 A 5.208 5.208 0 0 0 689.747 19.288 A 9.099 9.099 0 0 0 683.144 22.092 A 13.529 13.529 0 0 0 681.886 23.536 Q 678.517 28.272 678.517 36.377 A 10142.47 10142.47 0 0 1 678.872 41.638 Q 679.905 57.026 680.017 59.541 A 11.287 11.287 0 0 1 680.03 59.961 A 4.167 4.167 0 0 1 679.158 62.513 A 5.227 5.227 0 0 1 679.054 62.647 Q 678.077 63.868 676.319 63.868 Q 674.708 63.868 673.512 62.867 A 3.559 3.559 0 0 1 672.229 60.36 A 4.752 4.752 0 0 1 672.218 60.205 Z" vector-effect="non-scaling-stroke" class="svg-elem-14"></path>
    <path d="M 761.232 69.58 Q 756.105 69.58 752.101 67.31 Q 748.097 65.039 745.265 61.109 A 27.798 27.798 0 0 1 741.887 54.79 A 33.584 33.584 0 0 1 740.944 51.954 Q 739.454 46.729 739.454 41.065 A 43.551 43.551 0 0 1 740.318 32.148 Q 741.534 26.331 744.464 21.813 A 26.933 26.933 0 0 1 745.118 20.85 A 19.971 19.971 0 0 1 750.92 15.315 Q 754.989 12.824 760.235 12.659 A 23.867 23.867 0 0 1 760.987 12.647 A 20.443 20.443 0 0 1 766.535 13.364 A 15.673 15.673 0 0 1 773.048 16.993 Q 778.028 21.582 778.028 28.614 Q 778.028 32.813 776.393 36.914 A 18.004 18.004 0 0 1 771.804 43.506 A 21.31 21.31 0 0 1 771.144 44.092 Q 764.65 49.707 754.493 49.707 A 36.907 36.907 0 0 1 748.701 49.237 A 40.74 40.74 0 0 1 748.292 49.17 Q 749.122 52.393 750.807 55.249 Q 752.491 58.106 755.079 59.913 Q 757.667 61.719 761.232 61.719 A 10.387 10.387 0 0 0 769.379 57.971 A 15.269 15.269 0 0 0 770.704 56.202 Q 771.828 54.469 773.806 54.398 A 4.752 4.752 0 0 1 773.976 54.395 A 3.448 3.448 0 0 1 775.486 54.752 A 4.423 4.423 0 0 1 775.978 55.03 Q 777.833 56.202 777.833 58.301 A 3.781 3.781 0 0 1 777.448 59.946 A 4.765 4.765 0 0 1 777.198 60.401 A 20.896 20.896 0 0 1 771.932 66.127 A 19.936 19.936 0 0 1 770.46 67.115 A 17.021 17.021 0 0 1 762.665 69.532 A 20.79 20.79 0 0 1 761.232 69.58 Z M 754.347 41.846 A 25.589 25.589 0 0 0 758.919 41.464 Q 761.453 41.003 763.454 39.987 A 12.572 12.572 0 0 0 766.09 38.208 Q 770.216 34.571 770.216 28.614 A 8.093 8.093 0 0 0 767.794 22.774 A 10.267 10.267 0 0 0 767.775 22.754 A 7.272 7.272 0 0 0 764.877 21.052 Q 763.736 20.682 762.349 20.564 A 16.011 16.011 0 0 0 760.987 20.508 A 11.747 11.747 0 0 0 756.204 21.453 Q 753.684 22.563 751.84 24.976 A 14.332 14.332 0 0 0 751.466 25.489 Q 747.316 31.495 747.316 40.967 A 28.894 28.894 0 0 0 754.347 41.846 Z" vector-effect="non-scaling-stroke" class="svg-elem-15"></path>
  </g>
</svg>
